<?xml version="1.0" encoding="UTF-8"?>
<svg version="1.1" xmlns="http://www.w3.org/2000/svg" width="1254" height="1254">
<path d="M0 0 C1.12935965 -0.00205263 2.25871931 -0.00410527 3.42230198 -0.0062201 C7.19811547 -0.01186437 10.97389218 -0.01043603 14.74970913 -0.00901413 C17.48779104 -0.01105098 20.2258706 -0.01457429 22.96395105 -0.01801753 C29.69461188 -0.02557278 36.42526477 -0.02778933 43.1559294 -0.02834659 C51.22183852 -0.0292627 59.28774036 -0.03593766 67.35364634 -0.04269341 C86.84773049 -0.05873177 106.34181384 -0.06465461 125.8359034 -0.06944216 C135.06551482 -0.07178067 144.29512562 -0.07538364 153.52473656 -0.07913754 C185.14352735 -0.09197226 216.7623178 -0.10269061 248.38111115 -0.10614014 C250.3649517 -0.10636177 252.34879225 -0.10658355 254.33263281 -0.10680549 C256.32116242 -0.10702613 258.30969203 -0.10724661 260.29822165 -0.10746694 C264.28729475 -0.10790948 268.27636784 -0.1083566 272.26544094 -0.10880661 C273.25449469 -0.108916 274.24354844 -0.10902539 275.26257351 -0.1091381 C307.30954122 -0.11276614 339.35648628 -0.12867703 371.40344532 -0.15199697 C405.31665007 -0.17662963 439.22984189 -0.19031461 473.14305586 -0.19150805 C476.87078059 -0.1916795 480.59850532 -0.19189492 484.32623005 -0.19214249 C485.24404377 -0.19219826 486.16185748 -0.19225402 487.10748374 -0.19231148 C501.83682039 -0.19345905 516.56613367 -0.20445612 531.29546245 -0.21902954 C546.12052368 -0.23344323 560.94555517 -0.23660418 575.77062149 -0.22858956 C584.5612939 -0.2241559 593.35186987 -0.22790244 602.14252947 -0.24382807 C608.03493885 -0.25366024 613.9272815 -0.25232234 619.81969043 -0.24239184 C623.16374222 -0.23705824 626.50746285 -0.23780966 629.85152162 -0.24890056 C651.74065276 -0.31683793 673.38000686 1.18010374 694.81793118 5.81892776 C696.01095852 6.07238968 697.20398586 6.32585159 698.43316555 6.58699417 C733.60984715 14.33125305 767.83916581 27.88347106 798.31793118 47.13142776 C799.31953274 47.76049026 800.3211343 48.38955276 801.35308743 49.03767776 C818.61314047 60.24365443 835.2783874 72.78816589 849.68218899 87.5264473 C851.32627622 89.13961588 853.03677033 90.6097743 854.81793118 92.06892776 C857.9951251 94.74704919 860.6520448 97.67438501 863.33355618 100.84236526 C864.74147595 102.4664617 866.19471508 104.05176054 867.67730618 105.60799026 C916.84960282 157.25344976 948.57191325 234.3253259 948.44935894 305.81349659 C948.45243789 307.50753607 948.45243789 307.50753607 948.45557904 309.23579857 C948.46122331 313.01161206 948.45979497 316.78738877 948.45837307 320.56320572 C948.46040992 323.30128763 948.46393323 326.03936719 948.46737647 328.77744764 C948.47493172 335.50810847 948.47714827 342.23876136 948.47770553 348.96942599 C948.47862164 357.03533511 948.4852966 365.10123695 948.49205235 373.16714293 C948.50809071 392.66122708 948.51401355 412.15531043 948.5188011 431.64939999 C948.52113961 440.87901141 948.52474258 450.10862221 948.52849648 459.33823315 C948.5413312 490.95702394 948.55204955 522.57581439 948.55549908 554.19460773 C948.55572071 556.17844829 948.55594249 558.16228884 948.55616443 560.1461294 C948.55638507 562.13465901 948.55660555 564.12318862 948.55682588 566.11171824 C948.55726842 570.10079134 948.55771554 574.08986443 948.55816555 578.07893753 C948.55827494 579.06799128 948.55838433 580.05704503 948.55849704 581.0760701 C948.56212508 613.12303781 948.57803597 645.16998287 948.60135591 677.21694191 C948.62598857 711.13014666 948.63967355 745.04333848 948.64086699 778.95655245 C948.64103844 782.68427718 948.64125386 786.41200191 948.64150143 790.13972664 C948.6415572 791.05754036 948.64161296 791.97535407 948.64167042 792.92098033 C948.64281799 807.65031698 948.65381506 822.37963026 948.66838848 837.10895904 C948.68280217 851.93402027 948.68596312 866.75905176 948.6779485 881.58411808 C948.67351484 890.37479049 948.67726138 899.16536646 948.69318701 907.95602606 C948.70301918 913.84843544 948.70168128 919.74077809 948.69175078 925.63318702 C948.68641718 928.97723881 948.6871686 932.32095944 948.6982595 935.66501821 C948.76619687 957.55414935 947.2692552 979.19350345 942.63043118 1000.63142776 C942.37696926 1001.82445511 942.12350735 1003.01748245 941.86236477 1004.24666214 C934.11810589 1039.42334374 920.56588788 1073.6526624 901.31793118 1104.13142776 C900.68886868 1105.13302933 900.05980618 1106.13463089 899.41168118 1107.16658401 C888.20570451 1124.42663706 875.66119305 1141.09188399 860.92291164 1155.49568558 C859.30974306 1157.13977281 857.83958464 1158.85026691 856.38043118 1160.63142776 C853.70230975 1163.80862168 850.77497393 1166.46554139 847.60699368 1169.14705276 C845.98289724 1170.55497254 844.3975984 1172.00821167 842.84136868 1173.49080276 C791.19590918 1222.66309941 714.12403304 1254.38540984 642.63586235 1254.26285553 C641.5065027 1254.26490816 640.37714305 1254.2669608 639.21356037 1254.26907563 C635.43774688 1254.2747199 631.66197017 1254.27329156 627.88615322 1254.27186966 C625.14807131 1254.27390651 622.40999175 1254.27742982 619.6719113 1254.28087306 C612.94125047 1254.28842831 606.21059758 1254.29064486 599.47993295 1254.29120212 C591.41402383 1254.29211823 583.34812199 1254.29879319 575.28221601 1254.30554894 C555.78813186 1254.3215873 536.29404851 1254.32751014 516.79995895 1254.33229769 C507.57034753 1254.3346362 498.34073673 1254.33823917 489.11112579 1254.34199307 C457.492335 1254.35482779 425.87354455 1254.36554614 394.25475121 1254.36899567 C392.27091065 1254.3692173 390.2870701 1254.36943908 388.30322954 1254.36966102 C386.31469993 1254.36988166 384.32617032 1254.37010214 382.3376407 1254.37032247 C378.3485676 1254.37076501 374.35949451 1254.37121213 370.37042141 1254.37166214 C369.38136766 1254.37177153 368.39231391 1254.37188092 367.37328884 1254.37199363 C335.32632113 1254.37562167 303.27937607 1254.39153256 271.23241703 1254.4148525 C237.31921228 1254.43948516 203.40602046 1254.45317013 169.49280649 1254.45436358 C165.76508176 1254.45453503 162.03735703 1254.45475045 158.3096323 1254.45499802 C157.39181858 1254.45505379 156.47400487 1254.45510955 155.52837861 1254.45516701 C140.79904196 1254.45631458 126.06972868 1254.46731165 111.3403999 1254.48188507 C96.51533867 1254.49629876 81.69030718 1254.49945971 66.86524086 1254.49144509 C58.07456845 1254.48701143 49.28399248 1254.49075797 40.49333288 1254.5066836 C34.6009235 1254.51651577 28.70858085 1254.51517787 22.81617192 1254.50524737 C19.47212013 1254.49991377 16.1283995 1254.50066519 12.78434073 1254.51175609 C-9.10479041 1254.57969346 -30.74414451 1253.08275179 -52.18206882 1248.44392776 C-53.37509617 1248.19046585 -54.56812351 1247.93700394 -55.7973032 1247.67586136 C-90.9739848 1239.93160248 -125.20330346 1226.37938447 -155.68206882 1207.13142776 C-156.68367039 1206.50236526 -157.68527195 1205.87330276 -158.71722507 1205.22517776 C-175.97727812 1194.0192011 -192.64252505 1181.47468964 -207.04632664 1166.73640823 C-208.69041387 1165.12323965 -210.40090797 1163.65308123 -212.18206882 1162.19392776 C-215.35926274 1159.51580634 -218.01618245 1156.58847052 -220.69769382 1153.42049026 C-222.1056136 1151.79639383 -223.55885273 1150.21109499 -225.04144382 1148.65486526 C-279.81135285 1091.13025667 -306.06568786 1010.98011417 -305.94276524 932.73761368 C-305.94468665 929.99262502 -305.94960163 927.24764344 -305.9543578 924.50265843 C-305.9630656 918.56323368 -305.96445139 912.62384344 -305.96085453 906.68441391 C-305.9555197 897.85150802 -305.96167066 889.01863519 -305.96993746 880.18573289 C-305.98513749 863.48720245 -305.98688661 846.78868722 -305.98441444 830.0901513 C-305.98257806 817.18941407 -305.9843486 804.28868179 -305.98863888 791.38794518 C-305.98924129 789.53106691 -305.98984249 787.67418865 -305.99044248 785.81731038 C-305.99134979 783.01876627 -305.99225846 780.22022216 -305.99317483 777.42167805 C-306.00159853 751.41818404 -306.00594414 725.41469189 -306.00176811 699.41119671 C-306.00161174 698.43192176 -306.00145536 697.45264681 -306.00129425 696.44369686 C-306.00048853 691.48094777 -305.99964276 686.51819868 -305.99878094 681.5554496 C-305.99860986 680.56992737 -305.99843877 679.58440514 -305.9982625 678.5690186 C-305.99791584 676.57605495 -305.99756731 674.5830913 -305.99721691 672.59012765 C-305.99186182 641.59175745 -305.9997865 610.59341571 -306.01825047 579.59505081 C-306.0389973 544.72367697 -306.04968799 509.85232076 -306.04567498 474.9809404 C-306.04527967 471.25783384 -306.04491812 467.53472728 -306.0445776 463.81162071 C-306.04448687 462.894979 -306.04439614 461.97833728 -306.04430265 461.03391855 C-306.04313989 447.23598954 -306.04976051 433.43807842 -306.06038952 419.64015388 C-306.07247634 403.93430035 -306.07396061 388.22848603 -306.06159935 372.52263188 C-306.05500241 363.74969532 -306.05652809 354.97685272 -306.07018787 346.20392382 C-306.07849868 340.3236159 -306.07564989 334.44337757 -306.0642126 328.56307518 C-306.05802088 325.22608012 -306.05789196 321.88941338 -306.06807593 318.55240708 C-306.13013401 296.68049416 -304.63152324 275.05221157 -299.99456882 253.63142776 C-299.73965672 252.43550003 -299.48474461 251.2395723 -299.22210789 250.00740433 C-286.92316322 194.27276022 -259.396648 138.94380161 -218.28704929 98.76716995 C-216.67388071 97.12308272 -215.20372229 95.41258862 -213.74456882 93.63142776 C-211.0664474 90.45423385 -208.13911158 87.79731414 -204.97113132 85.11580276 C-203.34703489 83.70788299 -201.76173605 82.25464386 -200.20550632 80.77205276 C-148.56004683 31.59975612 -71.48817068 -0.12255431 0 0 Z " fill="#010613" transform="translate(305.68206882476807,-0.13142776489257813)"/>
<path d="M0 0 C55.11 0 110.22 0 167 0 C171.95 9.57 176.9 19.14 182 29 C185.48810013 35.44230738 188.98090114 41.87750706 192.51416016 48.29443359 C195.13201927 53.06129436 197.7226561 57.84287596 200.3125 62.625 C200.84907227 63.6157251 201.38564453 64.6064502 201.93847656 65.62719727 C207.70814471 76.29221217 213.43075225 86.98241324 219.14981079 97.67462158 C221.3138734 101.7198321 223.48208686 105.76279547 225.65234375 109.8046875 C232.86311391 123.2382925 240.02592327 136.69602579 247.14990234 150.17581177 C252.33686475 159.9898306 257.55685805 169.78510279 262.8125 179.5625 C267.50760729 188.29801588 272.13230163 197.06573961 276.6875 205.875 C281.64094619 215.45046288 286.74127676 224.93475429 291.92578125 234.38671875 C299.33676483 247.89862754 306.61900686 261.48078119 313.8203125 275.10546875 C314.22968048 275.87986298 314.63904846 276.6542572 315.06082153 277.45211792 C317.08848113 281.28917532 319.11357675 285.12756067 321.13525391 288.96777344 C321.87660704 290.37305772 322.61797979 291.77833166 323.359375 293.18359375 C323.69832794 293.82926804 324.03728088 294.47494232 324.38650513 295.1401825 C325.82197729 297.85832589 327.29263354 300.43895031 329 303 C328.78459936 309.01248737 325.83326316 314.45976811 323.4375 319.875 C323.01275391 320.84953125 322.58800781 321.8240625 322.15039062 322.828125 C321.10624496 325.22144765 320.05597786 327.61188014 319 330 C318.01 330 317.02 330 316 330 C315.45811035 328.94594971 315.45811035 328.94594971 314.90527344 327.87060547 C308.34293501 315.12109705 301.73775201 302.4082308 294.82324219 289.84521484 C289.71721516 280.54197357 284.77376127 271.15420231 279.82263184 261.76797485 C275.11644466 252.84841358 270.36722962 243.95812042 265.5 235.125 C261.39999731 227.67850863 257.53480154 220.14507978 253.77832031 212.52026367 C250.287023 205.47468172 246.53866169 198.58792276 242.7421875 191.703125 C238.70833097 184.36232518 234.83454812 176.94659777 231 169.5 C226.25298555 160.28600987 221.39489798 151.1472749 216.3984375 142.06640625 C212.84307098 135.58920926 209.39931144 129.06030699 206 122.5 C202.08751368 114.95003453 198.09431488 107.45293255 194 100 C189.38059489 91.59123914 184.90943424 83.11489647 180.49560547 74.59667969 C177.1206666 68.10110069 173.65321107 61.66344133 170.125 55.25 C165.72827396 47.2428345 161.42886767 39.18871951 157.20794678 31.08776855 C156.57216326 29.86805261 155.93500853 28.64905039 155.29644775 27.43078613 C154.40690084 25.73212975 153.52361615 24.0301984 152.640625 22.328125 C152.13047852 21.3474707 151.62033203 20.36681641 151.09472656 19.35644531 C150 17 150 17 150 15 C109.74 15 69.48 15 28 15 C38.70455099 34.77068436 38.70455099 34.77068436 49.57470703 54.44677734 C58.97458134 71.2854011 68.29016707 88.16396956 77.45019531 105.13427734 C81.45507572 112.53964694 85.49845462 119.92413356 89.53369141 127.31298828 C90.9761712 129.9563337 92.41622559 132.60098487 93.85546875 135.24609375 C99.5142675 145.64200024 105.21205718 156.0156922 110.9375 166.375 C116.98662615 177.32050916 122.97362257 188.29792749 128.91796875 199.30078125 C133.43035135 207.65246005 137.98377854 215.98171879 142.53369141 224.31298828 C143.9761712 226.9563337 145.41622559 229.60098487 146.85546875 232.24609375 C152.5142675 242.64200024 158.21205718 253.0156922 163.9375 263.375 C170.51754413 275.28117149 177.01711065 287.22914715 183.48388672 299.19726562 C185.91872847 303.69839015 188.36345412 308.19409037 190.8125 312.6875 C191.5396521 314.02180054 191.5396521 314.02180054 192.28149414 315.38305664 C195.07397024 320.49814929 197.88463348 325.6027357 200.7109375 330.69921875 C208.58737865 344.90566679 216.32157906 359.17688079 223.91796875 373.53515625 C228.42375258 382.04952063 232.98436867 390.53054596 237.61425781 398.97827148 C241.44351215 405.96738044 245.22742115 412.98015107 249 420 C253.80715028 428.94200858 258.63764566 437.87049229 263.51367188 446.77514648 C266.19779985 451.68032748 268.85939564 456.59647931 271.49609375 461.52734375 C272.08060303 462.61708496 272.6651123 463.70682617 273.26733398 464.82958984 C274.39472757 466.93314709 275.51815287 469.03883757 276.63696289 471.14697266 C279.11262942 475.75839371 281.48679018 480.0729746 285 484 C287.66150841 476.75130358 290.2531361 469.47947707 292.80517578 462.19165039 C294.20045228 458.21907888 295.64777814 454.27136514 297.13500977 450.33203125 C298.17585594 447.52588882 299.17775751 444.70699727 300.1796875 441.88671875 C303.75931177 431.83685031 307.44498982 421.82595537 311.125 411.8125 C311.51438751 410.75254822 311.90377502 409.69259644 312.30496216 408.6005249 C320.66353361 385.85437322 329.12052576 363.14528998 337.59570312 340.44238281 C341.23161681 330.70161101 344.86056252 320.95824304 348.48983765 311.21499634 C349.67503518 308.03346046 350.8605477 304.85204212 352.04614258 301.6706543 C355.94094376 291.21857372 359.83152258 280.76494536 363.71484375 270.30859375 C364.46588326 268.28710253 365.21694082 266.26561801 365.96801758 264.24414062 C367.37663203 260.45292728 368.78380988 256.66118495 370.19018555 252.86914062 C370.81683694 251.18227027 371.44354263 249.49542009 372.0703125 247.80859375 C372.49696449 246.6563456 372.49696449 246.6563456 372.93223572 245.4808197 C374.88627782 240.22744436 374.88627782 240.22744436 376 238 C388.87 238 401.74 238 415 238 C415 221.5 415 205 415 188 C409.39 188 403.78 188 398 188 C399.12468471 181.25189171 399.12468471 181.25189171 400.48828125 178.046875 C400.78049561 177.35021729 401.07270996 176.65355957 401.3737793 175.93579102 C401.68355713 175.21447998 401.99333496 174.49316895 402.3125 173.75 C402.95086353 172.2332171 403.5888863 170.71629074 404.2265625 169.19921875 C404.53368164 168.47395996 404.84080078 167.74870117 405.15722656 167.00146484 C406.19655583 164.53320837 407.19833202 162.05124663 408.1875 159.5625 C408.64189453 158.41974609 408.64189453 158.41974609 409.10546875 157.25390625 C409.40066406 156.51011719 409.69585938 155.76632812 410 155 C410.99626858 152.50735964 411.99388483 150.01526386 412.9921875 147.5234375 C413.6884574 145.78006404 414.3809272 144.0351698 415.0703125 142.2890625 C415.41835938 141.40992188 415.76640625 140.53078125 416.125 139.625 C416.43695312 138.83351563 416.74890625 138.04203125 417.0703125 137.2265625 C417.95412028 135.10987999 418.97418705 133.0516259 420 131 C434.85 131 449.7 131 465 131 C465 133.31 465 135.62 465 138 C480.51 138 496.02 138 512 138 C512 154.5 512 171 512 188 C496.49 188 480.98 188 465 188 C465 205.49 465 222.98 465 241 C481.5 241 498 241 515 241 C515 258.49 515 275.98 515 294 C498.5 294 482 294 465 294 C465 310.17 465 326.34 465 343 C468.96 343 472.92 343 477 343 C474.88880754 349.85614976 472.17687113 356.10613209 468.9375 362.5 C468.49083984 363.40492188 468.04417969 364.30984375 467.58398438 365.2421875 C467.15279297 366.10070312 466.72160156 366.95921875 466.27734375 367.84375 C465.88796631 368.61912109 465.49858887 369.39449219 465.09741211 370.19335938 C464 372 464 372 462 373 C462 363.1 462 353.2 462 343 C447.15 343 432.3 343 417 343 C417 357.52 417 372.04 417 387 C429.54 387 442.08 387 455 387 C453.42855604 391.71433189 451.67387897 395.86095668 449.39453125 400.22265625 C448.86073097 401.25681923 448.86073097 401.25681923 448.31614685 402.31187439 C447.15233351 404.56421502 445.98246278 406.81334844 444.8125 409.0625 C443.9960243 410.63976957 443.17994837 412.21724613 442.36425781 413.79492188 C440.70627509 417.0000776 439.04588945 420.20396939 437.38330078 423.40673828 C435.23882731 427.53812197 433.10033319 431.67256047 430.96484375 435.80859375 C427.91447348 441.71537074 424.85911388 447.61954967 421.80126953 453.52246094 C420.58569376 455.869257 419.37043091 458.2162115 418.15576172 460.56347656 C411.8743719 472.70182395 405.59250011 484.83929326 399.1940918 496.91650391 C398.82840088 497.6079248 398.46270996 498.2993457 398.0859375 499.01171875 C397.7770459 499.59397217 397.4681543 500.17622559 397.14990234 500.77612305 C395.39725054 504.16569954 393.70651792 507.58696415 392 511 C354.71 511 317.42 511 279 511 C265.465765 486.18723584 265.465765 486.18723584 261 477.5 C256.67226462 469.14729262 252.23295785 460.8644144 247.70874023 452.61669922 C243.61316323 445.14436885 239.57942209 437.63980225 235.5625 430.125 C230.87732176 421.36237246 226.17567643 412.60913277 221.4375 403.875 C216.98840009 395.67288547 212.54942077 387.46545727 208.125 379.25 C207.54685547 378.17693604 206.96871094 377.10387207 206.37304688 375.99829102 C203.31581202 370.31918169 200.26941296 364.63448807 197.23828125 358.94140625 C190.82991144 346.91334312 184.33208882 334.95046433 177.57543945 323.11328125 C173.69655995 316.29676968 170.00650651 309.39819689 166.39208984 302.43847656 C164.14039458 298.11692876 161.80519917 293.87700327 159.3125 289.6875 C156.97710366 285.76101377 154.87493278 281.79494141 152.875 277.6875 C149.82629544 271.48869273 146.49123044 265.49602265 143.0625 259.5 C137.81365255 250.31316913 132.7681191 241.03434014 127.8125 231.6875 C123.17029309 222.93465946 118.50086594 214.2039739 113.65551758 205.5612793 C110.20959586 199.40676653 106.85123134 193.20650366 103.5 187 C99.38005106 179.37458484 95.230773 171.76820809 91.00854492 164.19897461 C87.43322582 157.78827692 83.88645314 151.36199648 80.34359741 144.93331909 C69.38839103 125.05623569 58.37313785 105.21306856 47.27124023 85.41748047 C42.97232968 77.74823855 38.70138567 70.06375925 34.4375 62.375 C29.78111042 53.98223813 25.10126243 45.6036276 20.375 37.25 C19.85510498 36.33105957 19.33520996 35.41211914 18.79956055 34.46533203 C15.98455471 29.4941794 13.16212503 24.52730336 10.3359375 19.5625 C9.73604004 18.50643555 9.13614258 17.45037109 8.51806641 16.36230469 C7.36376906 14.33040983 6.20729044 12.29975215 5.04833984 10.27050781 C4.53223145 9.36139648 4.01612305 8.45228516 3.484375 7.515625 C3.02772461 6.71415039 2.57107422 5.91267578 2.10058594 5.08691406 C1 3 1 3 0 0 Z " fill="#03C0C5" transform="translate(295,391)"/>
<path d="M0 0 C3.96893682 1.32297894 4.42636619 2.93018904 6.51171875 6.51171875 C6.84091812 7.07158981 7.17011749 7.63146088 7.5092926 8.20829773 C8.57738799 10.02977495 9.63254284 11.85838748 10.6875 13.6875 C11.42018269 14.94328897 12.15358235 16.19865989 12.88769531 17.45361328 C14.9366982 20.96245987 16.97001915 24.4801151 19 28 C19.44102051 28.76231934 19.88204102 29.52463867 20.33642578 30.31005859 C22.58085697 34.19366964 24.79158278 38.09583385 27 42 C28.91386505 45.35576867 30.83218672 48.7089866 32.75 52.0625 C33.78781263 53.87887642 34.8255726 55.69528293 35.86328125 57.51171875 C37.90087491 61.07766542 39.93997846 64.64274135 41.98046875 68.20703125 C48.80920755 80.13898552 55.5889934 92.09792722 62.34570312 104.07080078 C64.01482907 107.02625725 65.68668231 109.98015466 67.359375 112.93359375 C72.29263607 121.64647402 77.21564048 130.36370766 82.0625 139.125 C85.57227848 145.46826355 89.14373014 151.77361777 92.75 158.0625 C97.79827736 166.86638233 102.7726377 175.70985319 107.72216797 184.56958008 C111.06190897 190.54569377 114.41777169 196.51205662 117.79589844 202.46655273 C125.05812925 215.26752575 132.17201953 228.14747481 139.26704407 241.04151917 C141.89091472 245.8076568 144.53613183 250.56162717 147.1875 255.3125 C150.95694052 262.07155134 154.63975155 268.87550218 158.3125 275.6875 C162.57660673 283.59494554 166.92548468 291.44546976 171.375 299.25 C176.88724578 308.92340993 182.17295279 318.70972267 187.37841797 328.55053711 C190.44009046 334.31483649 193.5612623 340.02073601 196.875 345.64453125 C197.48537109 346.68673828 198.09574219 347.72894531 198.72460938 348.80273438 C199.87628969 350.75514292 201.04342011 352.69855109 202.22851562 354.63085938 C204.53294056 358.54693245 205.99070126 361.03706397 206.03515625 365.640625 C204.84586607 369.50020821 203.51019635 373.21922254 201.9375 376.9375 C201.65583984 377.62134766 201.37417969 378.30519531 201.08398438 379.00976562 C200.3964595 380.67613946 199.69923825 382.33850727 199 384 C198.34 384 197.68 384 197 384 C196.45698242 382.93378418 195.91396484 381.86756836 195.35449219 380.76904297 C182.73996635 355.90130716 182.73996635 355.90130716 169.53833008 331.34350586 C163.79981934 320.9450454 158.44841526 310.34150108 153.05224609 299.76269531 C152.67422348 299.02291946 152.29620087 298.28314362 151.90672302 297.52095032 C151.19549568 296.12854888 150.48581078 294.73535806 149.77796936 293.3412323 C147.9738204 289.80899033 146.06153412 286.38721311 144 283 C143.18144968 281.50027729 142.37549574 279.99361347 141.58203125 278.48046875 C141.13682129 277.63194336 140.69161133 276.78341797 140.23291016 275.90917969 C139.7641748 275.01102539 139.29543945 274.11287109 138.8125 273.1875 C138.32056152 272.24680664 137.82862305 271.30611328 137.32177734 270.33691406 C134.53855169 264.99914645 131.79725593 259.64409123 129.125 254.25 C121.91511832 239.71519537 114.42170156 225.31904958 106.5625 211.125 C99.42065492 198.1979377 92.786412 185.00460662 86.09204102 171.84228516 C81.35632684 162.53484453 76.57648932 153.25537193 71.69622803 144.02284241 C67.52394492 136.12086131 63.44930544 128.16995158 59.38348389 120.21279907 C53.42647524 108.55518826 47.45668915 96.90565618 41.375 85.3125 C36.49653782 76.00666054 31.76962102 66.63093577 27.10107422 57.21826172 C25.81337393 54.62401675 24.51905128 52.03314556 23.22241211 49.44335938 C22.61411018 48.22773481 22.00685642 47.01158519 21.40063477 45.79492188 C19.374064 41.7307473 17.33006525 37.67578358 15.27442932 33.6262207 C13.91670226 30.94888998 12.56412046 28.26897472 11.21200562 25.58880615 C10.53666484 24.2530915 9.85916238 22.91846728 9.17935181 21.58502197 C5.58347105 14.52911742 2.23130382 7.62293017 0 0 Z " fill="#03BFC4" transform="translate(391,422)"/>
<path d="M0 0 C0.33 0 0.66 0 1 0 C1.48407516 3.27012579 1.96131456 6.54121679 2.4375 9.8125 C2.57220703 10.72193359 2.70691406 11.63136719 2.84570312 12.56835938 C2.97783203 13.48037109 3.10996094 14.39238281 3.24609375 15.33203125 C3.36654053 16.15421143 3.4869873 16.9763916 3.61108398 17.82348633 C4.66860236 26.46088217 5.14634301 34.98173285 5.13142776 43.68206882 C5.1334804 44.81142848 5.13553303 45.94078813 5.13764787 47.1043708 C5.14329214 50.88018429 5.1418638 54.65596101 5.14044189 58.43177795 C5.14247874 61.16985986 5.14600205 63.90793942 5.1494453 66.64601988 C5.15700055 73.3766807 5.15921709 80.10733359 5.15977435 86.83799822 C5.16069047 94.90390734 5.16736542 102.96980919 5.17412117 111.03571516 C5.19015954 130.52979932 5.19608237 150.02388266 5.20086992 169.51797223 C5.20320843 178.74758365 5.20681141 187.97719445 5.2105653 197.20680538 C5.22340002 228.82559617 5.23411838 260.44438663 5.2375679 292.06317997 C5.23778953 294.04702052 5.23801132 296.03086108 5.23823325 298.01470163 C5.23845389 300.00323124 5.23867437 301.99176086 5.2388947 303.98029047 C5.23933724 307.96936357 5.23978436 311.95843667 5.24023438 315.94750977 C5.24034377 316.93656351 5.24045316 317.92561726 5.24056586 318.94464234 C5.2441939 350.99161005 5.26010479 383.0385551 5.28342474 415.08551414 C5.3080574 448.9987189 5.32174237 482.91191072 5.32293582 516.82512468 C5.32310726 520.55284942 5.32332268 524.28057414 5.32357025 528.00829887 C5.32362602 528.92611259 5.32368179 529.84392631 5.32373925 530.78955256 C5.32488682 545.51888921 5.33588388 560.2482025 5.35045731 574.97753128 C5.36487099 589.8025925 5.36803195 604.62762399 5.36001733 619.45269031 C5.35558366 628.24336272 5.35933021 637.03393869 5.37525584 645.8245983 C5.385088 651.71700767 5.38375011 657.60935033 5.37381961 663.50175925 C5.368486 666.84581104 5.36923742 670.18953167 5.38032833 673.53359044 C5.43934008 692.54692568 4.32814292 711.25039935 1 730 C0.67 730 0.34 730 0 730 C0 489.1 0 248.2 0 0 Z " fill="#000000" transform="translate(1249,262)"/>
<path d="M0 0 C0.33 0 0.66 0 1 0 C1 240.9 1 481.8 1 730 C0.67 730 0.34 730 0 730 C-0.48407516 726.72987421 -0.96131456 723.45878321 -1.4375 720.1875 C-1.63956055 718.82334961 -1.63956055 718.82334961 -1.84570312 717.43164062 C-2.04389648 716.06362305 -2.04389648 716.06362305 -2.24609375 714.66796875 C-2.36654053 713.84578857 -2.4869873 713.0236084 -2.61108398 712.17651367 C-3.66860236 703.53911783 -4.14634301 695.01826715 -4.13142776 686.31793118 C-4.1334804 685.18857152 -4.13553303 684.05921187 -4.13764787 682.8956292 C-4.14329214 679.11981571 -4.1418638 675.34403899 -4.14044189 671.56822205 C-4.14247874 668.83014014 -4.14600205 666.09206058 -4.1494453 663.35398012 C-4.15700055 656.6233193 -4.15921709 649.89266641 -4.15977435 643.16200178 C-4.16069047 635.09609266 -4.16736542 627.03019081 -4.17412117 618.96428484 C-4.19015954 599.47020068 -4.19608237 579.97611734 -4.20086992 560.48202777 C-4.20320843 551.25241635 -4.20681141 542.02280555 -4.2105653 532.79319462 C-4.22340002 501.17440383 -4.23411838 469.55561337 -4.2375679 437.93682003 C-4.23778953 435.95297948 -4.23801132 433.96913892 -4.23823325 431.98529837 C-4.23845389 429.99676876 -4.23867437 428.00823914 -4.2388947 426.01970953 C-4.23933724 422.03063643 -4.23978436 418.04156333 -4.24023438 414.05249023 C-4.24034377 413.06343649 -4.24045316 412.07438274 -4.24056586 411.05535766 C-4.2441939 379.00838995 -4.26010479 346.9614449 -4.28342474 314.91448586 C-4.3080574 281.0012811 -4.32174237 247.08808928 -4.32293582 213.17487532 C-4.32310726 209.44715058 -4.32332268 205.71942586 -4.32357025 201.99170113 C-4.32362602 201.07388741 -4.32368179 200.15607369 -4.32373925 199.21044744 C-4.32488682 184.48111079 -4.33588388 169.7517975 -4.35045731 155.02246872 C-4.36487099 140.1974075 -4.36803195 125.37237601 -4.36001733 110.54730969 C-4.35558366 101.75663728 -4.35933021 92.96606131 -4.37525584 84.1754017 C-4.385088 78.28299233 -4.38375011 72.39064967 -4.37381961 66.49824075 C-4.368486 63.15418896 -4.36923742 59.81046833 -4.38032833 56.46640956 C-4.43934008 37.45307432 -3.32814292 18.74960065 0 0 Z " fill="#000000" transform="translate(4,262)"/>
<path d="M0 0 C17.82 0 35.64 0 54 0 C54 18.48 54 36.96 54 56 C36.18 56 18.36 56 0 56 C0 37.52 0 19.04 0 0 Z " fill="#03C1C6" transform="translate(834,471)"/>
<path d="M0 0 C16.5 0 33 0 50 0 C50 16.83 50 33.66 50 51 C33.5 51 17 51 0 51 C0 34.17 0 17.34 0 0 Z " fill="#03C1C5" transform="translate(913,418)"/>
<path d="M0 0 C15.84 0 31.68 0 48 0 C48 17.16 48 34.32 48 52 C32.16 52 16.32 52 0 52 C0 34.84 0 17.68 0 0 Z " fill="#03BEC2" transform="translate(759,417)"/>
<path d="M0 0 C16.17 0 32.34 0 49 0 C49 16.5 49 33 49 50 C32.83 50 16.66 50 0 50 C0 33.5 0 17 0 0 Z " fill="#04C3C7" transform="translate(975,336)"/>
<path d="M0 0 C15.51 0 31.02 0 47 0 C47 16.17 47 32.34 47 49 C31.49 49 15.98 49 0 49 C0 32.83 0 16.66 0 0 Z " fill="#03BEC2" transform="translate(827,579)"/>
<path d="M0 0 C14.19 0 28.38 0 43 0 C43 14.19 43 28.38 43 43 C28.81 43 14.62 43 0 43 C0 28.81 0 14.62 0 0 Z " fill="#010612" transform="translate(713,633)"/>
<path d="M0 0 C12.87 0 25.74 0 39 0 C39 13.2 39 26.4 39 40 C26.13 40 13.26 40 0 40 C0 26.8 0 13.6 0 0 Z " fill="#03BBC0" transform="translate(842,371)"/>
<path d="M0 0 C10.89 0 21.78 0 33 0 C33 11.55 33 23.1 33 35 C22.11 35 11.22 35 0 35 C0 23.45 0 11.9 0 0 Z " fill="#03BFC3" transform="translate(913,531)"/>
<path d="M0 0 C1.98 0 3.96 0 6 0 C6 14.19 6 28.38 6 43 C-8.19 43 -22.38 43 -37 43 C-37 42.34 -37 41.68 -37 41 C-23.47 41 -9.94 41 4 41 C4 27.8 4 14.6 4 1 C2.68 0.67 1.36 0.34 0 0 Z " fill="#021518" transform="translate(750,633)"/>
<path d="M0 0 C15.51 0 31.02 0 47 0 C46.01 0.99 45.02 1.98 44 3 C42.07037354 2.70033264 42.07037354 2.70033264 40 2 C38.62726322 1.8913807 37.25071309 1.82517402 35.87402344 1.79467773 C35.07349548 1.77473251 34.27296753 1.75478729 33.44818115 1.73423767 C32.16672211 1.70916893 32.16672211 1.70916893 30.859375 1.68359375 C29.97719299 1.66281265 29.09501099 1.64203156 28.18609619 1.62062073 C25.37414169 1.55535133 22.56209555 1.49634553 19.75 1.4375 C17.84113644 1.39429327 15.93228207 1.35067829 14.0234375 1.30664062 C9.34905174 1.19969313 4.67457398 1.09836215 0 1 C0 0.67 0 0.34 0 0 Z " fill="#010F1C" transform="translate(836,527)"/>
<path d="M0 0 C0.66 0 1.32 0 2 0 C6 6.625 6 6.625 6 10 C4.02 10.99 4.02 10.99 2 12 C-2 5.375 -2 5.375 -2 2 C-1.34 2 -0.68 2 0 2 C0 1.34 0 0.68 0 0 Z " fill="#06CACE" transform="translate(406,446)"/>
<path d="M0 0 C4.02779388 1.34259796 4.93053548 3.38993351 7.05859375 6.921875 C8 9 8 9 7.8125 12 C7.544375 12.66 7.27625 13.32 7 14 C4.44736912 11.725306 3.15855185 9.56797307 1.8125 6.4375 C1.46832031 5.65246094 1.12414062 4.86742187 0.76953125 4.05859375 C0 2 0 2 0 0 Z " fill="#05C5C6" transform="translate(391,422)"/>
<path d="M0 0 C0.71484375 1.578125 0.71484375 1.578125 1 4 C-0.05709499 6.38494456 -1.1317889 8.51234067 -2.4375 10.75 C-2.77587891 11.35199219 -3.11425781 11.95398438 -3.46289062 12.57421875 C-4.29768265 14.05568065 -5.14741494 15.52870608 -6 17 C-6.66 17 -7.32 17 -8 17 C-6.3341708 10.83643195 -3.12194714 5.51740344 0 0 Z " fill="#001C23" transform="translate(715,846)"/>
<path d="M0 0 C0.99 0 1.98 0 3 0 C3.53229326 1.26607607 4.05044544 2.53810412 4.5625 3.8125 C4.85253906 4.52019531 5.14257812 5.22789062 5.44140625 5.95703125 C6 8 6 8 5 11 C3.35 7.37 1.7 3.74 0 0 Z " fill="#03B7BB" transform="translate(562,755)"/>
<path d="M0 0 C0.99 0.33 1.98 0.66 3 1 C4.1875 4.5625 4.1875 4.5625 5 8 C4.01 8.495 4.01 8.495 3 9 C0 3.375 0 3.375 0 0 Z " fill="#04B8BC" transform="translate(531,819)"/>
<path d="M0 0 C0.66 0 1.32 0 2 0 C2.33 0.99 2.66 1.98 3 3 C3.66 3.33 4.32 3.66 5 4 C5 5.98 5 7.96 5 10 C2.35534962 6.8745041 1.15585285 3.91211733 0 0 Z " fill="#04B4BA" transform="translate(498,506)"/>
</svg>
